<svg width="594" height="89" viewBox="0 0 594 89" version="1.1" xmlns="http://www.w3.org/2000/svg" xmlns:xlink="http://www.w3.org/1999/xlink">
<g id="Canvas" fill="none">
<g id="logo">
<g id="Page 1">
<g id="face">
<g id="logo_2">
<g id="Combined Shape">
<path fill-rule="evenodd" clip-rule="evenodd" d="M 33.024 32.928L 33.024 33.312C 37.824 33.76 41.232 35.44 43.248 38.352C 45.264 41.264 46.272 45.472 46.272 50.976C 46.272 57.632 44.688 62.176 41.52 64.608C 38.352 67.04 32.832 68.256 24.96 68.256C 14.1439 68.256 5.82403 68 3.03984e-09 67.488L 3.03984e-09 1.248C 5.18403 0.735997 12.544 0.48 22.08 0.48C 30.4 0.48 36.176 1.67999 39.408 4.08C 42.64 6.48001 44.256 11.04 44.256 17.76C 44.256 22.56 43.36 26.192 41.568 28.656C 39.776 31.12 36.928 32.544 33.024 32.928ZM 9.408 29.472L 22.848 29.472C 27.456 29.472 30.64 28.752 32.4 27.312C 34.16 25.872 35.04 23.072 35.04 18.912C 35.04 14.816 34.08 12.08 32.16 10.704C 30.24 9.32799 26.72 8.64 21.6 8.64L 9.408 8.64L 9.408 29.472ZM 9.408 60L 23.52 60.096C 28.576 60.096 32.016 59.376 33.84 57.936C 35.664 56.496 36.576 53.632 36.576 49.344C 36.576 44.544 35.6 41.28 33.648 39.552C 31.696 37.824 28.128 36.928 22.944 36.864L 9.408 36.864L 9.408 60ZM 77.12 1.248L 77.12 53.28C 77.12 55.52 77.568 57.104 78.464 58.032C 79.36 58.96 80.928 59.424 83.168 59.424L 106.688 59.424L 107.168 66.816C 100.96 67.392 92.4481 67.68 81.632 67.68C 72.224 67.68 67.52 63.328 67.52 54.624L 67.52 1.248L 77.12 1.248ZM 147.808 2.43187e-08C 157.664 2.43187e-08 164.544 2.49598 168.448 7.488C 172.352 12.48 174.304 21.4399 174.304 34.368C 174.304 47.2961 172.352 56.256 168.448 61.248C 164.544 66.24 157.664 68.736 147.808 68.736C 138.016 68.736 131.168 66.24 127.264 61.248C 123.36 56.256 121.408 47.2961 121.408 34.368C 121.408 21.4399 123.36 12.48 127.264 7.488C 131.168 2.49598 138.016 2.43187e-08 147.808 2.43187e-08ZM 160.672 14.112C 158.304 10.4 154.016 8.544 147.808 8.544C 141.6 8.544 137.328 10.4 134.992 14.112C 132.656 17.824 131.488 24.576 131.488 34.368C 131.488 44.16 132.656 50.912 134.992 54.624C 137.328 58.336 141.6 60.192 147.808 60.192C 154.016 60.192 158.304 58.336 160.672 54.624C 163.04 50.912 164.224 44.16 164.224 34.368C 164.224 24.576 163.04 17.824 160.672 14.112ZM 301.472 32.928L 301.472 33.312C 306.272 33.76 309.68 35.44 311.696 38.352C 313.712 41.264 314.72 45.472 314.72 50.976C 314.72 57.632 313.136 62.176 309.968 64.608C 306.8 67.04 301.28 68.256 293.408 68.256C 282.592 68.256 274.272 68 268.448 67.488L 268.448 1.248C 273.632 0.735997 280.992 0.48 290.528 0.48C 298.848 0.48 304.624 1.67999 307.856 4.08C 311.088 6.48001 312.704 11.04 312.704 17.76C 312.704 22.56 311.808 26.192 310.016 28.656C 308.224 31.12 305.376 32.544 301.472 32.928ZM 277.856 29.472L 291.296 29.472C 295.904 29.472 299.088 28.752 300.848 27.312C 302.608 25.872 303.488 23.072 303.488 18.912C 303.488 14.816 302.528 12.08 300.608 10.704C 298.688 9.32799 295.168 8.64 290.048 8.64L 277.856 8.64L 277.856 29.472ZM 277.856 60L 291.968 60.096C 297.024 60.096 300.464 59.376 302.288 57.936C 304.112 56.496 305.024 53.632 305.024 49.344C 305.024 44.544 304.048 41.28 302.096 39.552C 300.144 37.824 296.576 36.928 291.392 36.864L 277.856 36.864L 277.856 60ZM 360.16 2.43187e-08C 370.016 2.43187e-08 376.896 2.49598 380.8 7.488C 384.704 12.48 386.656 21.4399 386.656 34.368C 386.656 47.2961 384.704 56.256 380.8 61.248C 376.896 66.24 370.016 68.736 360.16 68.736C 350.368 68.736 343.52 66.24 339.616 61.248C 335.712 56.256 333.76 47.2961 333.76 34.368C 333.76 21.4399 335.712 12.48 339.616 7.488C 343.52 2.49598 350.368 2.43187e-08 360.16 2.43187e-08ZM 373.024 14.112C 370.656 10.4 366.368 8.544 360.16 8.544C 353.952 8.544 349.68 10.4 347.344 14.112C 345.008 17.824 343.84 24.576 343.84 34.368C 343.84 44.16 345.008 50.912 347.344 54.624C 349.68 58.336 353.952 60.192 360.16 60.192C 366.368 60.192 370.656 58.336 373.024 54.624C 375.392 50.912 376.576 44.16 376.576 34.368C 376.576 24.576 375.392 17.824 373.024 14.112ZM 443.04 47.52L 416.64 47.52L 410.496 67.488L 400.704 67.488L 421.44 3.84C 421.952 2.11199 423.136 1.248 424.992 1.248L 434.784 1.248C 436.704 1.248 437.856 2.11199 438.24 3.84L 459.072 67.488L 449.184 67.488L 443.04 47.52ZM 440.544 39.168L 432.768 14.016C 432.576 13.44 432.304 12.544 431.952 11.328C 431.6 10.112 431.328 9.216 431.136 8.64L 428.544 8.64L 427.008 14.016L 419.232 39.168L 440.544 39.168ZM 523.424 67.488L 513.152 67.488L 507.488 46.848C 506.08 42.432 503.296 40.224 499.136 40.224L 485.504 40.128L 485.504 67.488L 476 67.488L 476 1.248C 481.44 0.671997 489.152 0.384 499.136 0.384C 507.136 0.384 512.784 1.75999 516.08 4.512C 519.376 7.26401 521.024 12.288 521.024 19.584C 521.024 24.896 520.08 28.896 518.192 31.584C 516.304 34.272 513.184 35.904 508.832 36.48L 508.832 36.96C 513.12 38.24 515.904 41.44 517.184 46.56L 523.424 67.488ZM 485.504 31.968L 498.944 31.968C 503.68 31.904 506.928 31.056 508.688 29.424C 510.448 27.792 511.328 24.704 511.328 20.16C 511.328 15.68 510.448 12.64 508.688 11.04C 506.928 9.43999 503.68 8.64 498.944 8.64C 492.416 8.64 487.936 8.672 485.504 8.736L 485.504 31.968ZM 543.52 67.488L 543.52 1.248C 551.904 0.671997 559.872 0.384 567.424 0.384C 577.152 0.384 583.952 2.84798 587.824 7.776C 591.696 12.704 593.632 21.5679 593.632 34.368C 593.632 47.1681 591.696 56.032 587.824 60.96C 583.952 65.888 577.152 68.352 567.424 68.352C 559.872 68.352 551.904 68.064 543.52 67.488ZM 553.12 8.832C 554.4 8.832 556.624 8.816 559.792 8.784C 562.96 8.752 565.504 8.736 567.424 8.736C 573.44 8.736 577.616 10.592 579.952 14.304C 582.288 18.016 583.456 24.704 583.456 34.368C 583.456 44.032 582.288 50.72 579.952 54.432C 577.616 58.144 573.44 60 567.424 60C 561.984 60 557.216 59.904 553.12 59.712L 553.12 8.832ZM 222.936 74.988C 233.936 75.988 233.436 80.988 252.436 78.488L 251.436 87.488C 242.936 89.488 235.436 88.488 227.936 84.988C 220.436 81.488 215.936 79.988 209.936 78.988L 210.936 72.988C 213.936 73.488 216.936 73.488 221.436 72.988C 225.936 72.488 229.436 69.988 231.235 67.3387C 228.088 68.2702 224.386 68.736 220.128 68.736C 210.336 68.736 203.472 66.24 199.536 61.248C 195.6 56.256 193.632 47.2961 193.632 34.368C 193.632 21.4399 195.6 12.48 199.536 7.488C 203.472 2.49598 210.336 2.43187e-08 220.128 2.43187e-08C 229.984 2.43187e-08 236.864 2.49598 240.768 7.488C 244.672 12.48 246.624 21.4399 246.624 34.368C 246.624 47.1826 245.436 53.988 241.936 60.988C 238.436 67.988 232.936 73.988 222.936 74.988ZM 232.992 14.112C 230.624 10.4 226.336 8.544 220.128 8.544C 213.92 8.544 209.648 10.4 207.312 14.112C 204.976 17.824 203.808 24.576 203.808 34.368C 203.808 44.16 204.976 50.912 207.312 54.624C 209.648 58.336 213.92 60.192 220.128 60.192C 226.336 60.192 230.624 58.336 232.992 54.624C 235.36 50.912 236.544 44.16 236.544 34.368C 236.544 24.576 235.36 17.824 232.992 14.112Z" fill="white"/>
</g>
</g>
</g>
</g>
</g>
</g>
</svg>

